<?xml version="1.0" standalone="no"?>
<!DOCTYPE svg PUBLIC "-//W3C//DTD SVG 20010904//EN"
 "http://www.w3.org/TR/2001/REC-SVG-20010904/DTD/svg10.dtd">
<svg version="1.0" xmlns="http://www.w3.org/2000/svg"
 width="188.000000pt" height="169.000000pt" viewBox="0 0 188.000000 169.000000"
 preserveAspectRatio="xMidYMid meet">

<g transform="translate(0.000000,169.000000) scale(0.100000,-0.100000)"
fill="#0A84E3" stroke="none">
<path d="M850 1649 c-102 -10 -180 -33 -279 -80 -81 -38 -201 -115 -201 -128
0 -4 29 -35 64 -70 l63 -63 69 44 c119 76 232 108 377 108 188 0 342 -65 477
-200 139 -139 200 -285 200 -479 0 -86 -20 -206 -45 -264 -7 -16 0 -18 96 -15
l103 3 19 70 c32 122 28 315 -11 445 -26 84 -81 202 -93 194 -5 -3 -6 1 -3 9
10 27 -120 175 -234 265 -62 50 -246 133 -317 145 -128 21 -198 25 -285 16z"/>
<path d="M57 1613 c-4 -3 -7 -37 -7 -74 0 -65 1 -69 25 -75 14 -3 41 -4 60 -2
31 4 40 -2 90 -52 l55 -55 -45 -60 c-153 -205 -209 -479 -146 -725 l16 -65
104 -3 c96 -3 103 -1 96 15 -35 83 -46 162 -42 288 4 118 7 138 36 209 37 92
73 155 101 181 20 19 22 17 115 -75 l95 -95 0 -92 c0 -109 -5 -106 135 -101
l90 3 0 110 0 110 -95 3 -95 3 -222 222 -223 222 0 57 0 58 -68 0 c-38 0 -72
-3 -75 -7z"/>
<path d="M1067 1053 c-10 -9 -8 -195 1 -211 6 -9 36 -12 113 -10 l104 3 3 113
3 112 -109 0 c-60 0 -112 -3 -115 -7z"/>
<path d="M340 481 c0 -18 65 -115 111 -165 62 -68 87 -84 101 -65 7 11 8 9 6
-6 -4 -26 82 -78 185 -110 65 -21 98 -25 195 -25 143 1 183 9 292 63 47 23 89
42 95 42 5 0 8 -17 7 -37 l-4 -38 116 0 116 0 0 175 0 175 -113 0 -113 0 -44
-46 c-53 -54 -120 -98 -179 -119 -60 -21 -82 -24 -175 -25 -129 -2 -234 40
-330 132 l-61 59 -102 -2 c-57 -1 -103 -4 -103 -8z"/>
</g>
</svg>
